<?xml version="1.0" encoding="UTF-8"?>
<svg xmlns="http://www.w3.org/2000/svg" xmlns:xlink="http://www.w3.org/1999/xlink" width="612pt" height="792pt" viewBox="0 0 612 792">
<path fill-rule="evenodd" fill="rgb(92.939758%, 10.978699%, 14.118958%)" fill-opacity="1" d="M 438.574219 520.335938 L 438.574219 513.1875 L 442.207031 513.1875 L 442.207031 491.652344 L 439.328125 491.652344 L 437.484375 497.277344 L 431.785156 497.277344 L 431.785156 484.597656 L 461.90625 484.597656 L 461.90625 497.277344 L 456.191406 497.277344 L 454.371094 491.652344 L 451.484375 491.652344 L 451.484375 513.1875 L 455.097656 513.1875 L 455.097656 520.335938 Z M 405.476562 520.335938 L 405.476562 513.1875 L 409.109375 513.1875 L 409.109375 491.746094 L 405.476562 491.746094 L 405.476562 484.597656 L 422 484.597656 L 422 491.746094 L 418.4375 491.746094 L 418.4375 513.1875 L 427.574219 513.1875 L 429.710938 506.234375 L 435.738281 506.234375 L 435.738281 520.335938 Z M 370.007812 520.335938 L 370.007812 513.1875 L 373.636719 513.1875 L 373.636719 491.746094 L 370.007812 491.746094 L 370.007812 484.597656 L 402.0625 484.597656 L 402.0625 497.460938 L 395.859375 497.460938 L 393.675781 491.746094 L 382.964844 491.746094 L 382.964844 497.558594 L 389.996094 497.558594 L 389.996094 505.507812 L 382.964844 505.507812 L 382.964844 513.1875 L 393.675781 513.1875 L 395.859375 506.234375 L 402.0625 506.234375 L 402.0625 520.335938 Z M 347.179688 520.335938 L 337.613281 491.746094 L 334.824219 491.746094 L 334.824219 484.597656 L 349.769531 484.597656 L 349.769531 491.746094 L 346.503906 491.746094 L 351.613281 509.210938 L 356.773438 491.746094 L 353.484375 491.746094 L 353.484375 484.597656 L 368.386719 484.597656 L 368.386719 491.746094 L 365.597656 491.746094 L 356.070312 520.335938 Z M 300.15625 520.335938 L 300.15625 513.1875 L 303.789062 513.1875 L 303.789062 491.746094 L 300.15625 491.746094 L 300.15625 484.597656 L 332.210938 484.597656 L 332.210938 497.460938 L 326.007812 497.460938 L 323.828125 491.746094 L 313.117188 491.746094 L 313.117188 497.558594 L 320.144531 497.558594 L 320.144531 505.507812 L 313.117188 505.507812 L 313.117188 513.1875 L 323.828125 513.1875 L 326.007812 506.234375 L 332.210938 506.234375 L 332.210938 520.335938 Z M 274.824219 516.605469 L 275.039062 520.335938 L 267.242188 520.335938 L 267.242188 508.21875 L 275.527344 508.21875 C 276.917969 510.144531 278.214844 511.511719 279.433594 512.3125 C 280.640625 513.121094 281.972656 513.527344 283.425781 513.527344 C 284.625 513.527344 285.585938 513.238281 286.3125 512.667969 C 287.039062 512.097656 287.40625 511.335938 287.40625 510.402344 C 287.40625 509.507812 287.050781 508.78125 286.328125 508.21875 C 285.609375 507.65625 284.535156 507.261719 283.113281 507.027344 L 279.308594 506.398438 C 275.171875 505.722656 272.089844 504.457031 270.054688 502.59375 C 268.019531 500.742188 267 498.269531 267 495.183594 C 267 491.953125 268.160156 489.265625 270.46875 487.105469 C 272.773438 484.945312 275.660156 483.871094 279.117188 483.871094 C 280.945312 483.871094 282.558594 484.195312 283.957031 484.839844 C 285.351562 485.484375 286.550781 486.46875 287.554688 487.800781 L 287.453125 484.597656 L 295.226562 484.597656 L 295.226562 495.863281 L 287.453125 495.863281 C 286.4375 494.117188 285.386719 492.828125 284.320312 492 C 283.246094 491.164062 282.078125 490.753906 280.839844 490.753906 C 279.738281 490.753906 278.828125 491.050781 278.109375 491.636719 C 277.390625 492.222656 277.035156 492.960938 277.035156 493.828125 C 277.035156 494.714844 277.414062 495.433594 278.175781 495.972656 C 278.9375 496.515625 280.203125 496.964844 281.980469 497.320312 L 285.269531 497.898438 C 289.390625 498.691406 292.441406 500.007812 294.433594 501.851562 C 296.417969 503.6875 297.410156 506.125 297.410156 509.160156 C 297.410156 512.75 296.292969 515.628906 294.070312 517.789062 C 291.835938 519.953125 288.851562 521.039062 285.097656 521.039062 C 282.980469 521.039062 281.078125 520.675781 279.382812 519.9375 C 277.679688 519.203125 276.164062 518.09375 274.824219 516.605469 Z M 225.667969 502.480469 C 225.667969 499.699219 226.203125 497.128906 227.289062 494.746094 C 228.371094 492.375 229.96875 490.273438 232.058594 488.429688 C 233.789062 486.921875 235.714844 485.796875 237.832031 485.046875 C 239.941406 484.292969 242.25 483.921875 244.738281 483.921875 C 247.21875 483.921875 249.527344 484.292969 251.652344 485.046875 C 253.777344 485.796875 255.703125 486.921875 257.433594 488.429688 C 259.515625 490.273438 261.097656 492.382812 262.1875 494.773438 C 263.28125 497.160156 263.824219 499.734375 263.824219 502.480469 C 263.824219 505.226562 263.28125 507.789062 262.1875 510.171875 C 261.097656 512.550781 259.515625 514.667969 257.433594 516.503906 C 255.703125 518.011719 253.777344 519.144531 251.652344 519.894531 C 249.527344 520.65625 247.21875 521.039062 244.738281 521.039062 C 242.265625 521.039062 239.964844 520.65625 237.839844 519.894531 C 235.714844 519.144531 233.789062 518.011719 232.058594 516.503906 C 229.976562 514.667969 228.398438 512.550781 227.304688 510.171875 C 226.214844 507.789062 225.667969 505.226562 225.667969 502.480469 Z M 235.5 502.480469 C 235.5 505.339844 236.378906 507.707031 238.140625 509.574219 C 239.898438 511.453125 242.117188 512.386719 244.78125 512.386719 C 247.441406 512.386719 249.660156 511.453125 251.421875 509.589844 C 253.183594 507.722656 254.058594 505.359375 254.058594 502.480469 C 254.058594 499.585938 253.175781 497.203125 251.402344 495.316406 C 249.632812 493.441406 247.425781 492.496094 244.78125 492.496094 C 242.132812 492.496094 239.925781 493.441406 238.15625 495.332031 C 236.386719 497.21875 235.5 499.601562 235.5 502.480469 Z M 185.035156 502.480469 C 185.035156 499.699219 185.574219 497.128906 186.65625 494.746094 C 187.742188 492.375 189.335938 490.273438 191.429688 488.429688 C 193.15625 486.921875 195.085938 485.796875 197.203125 485.046875 C 199.308594 484.292969 201.617188 483.921875 204.105469 483.921875 C 206.589844 483.921875 208.894531 484.292969 211.019531 485.046875 C 213.144531 485.796875 215.074219 486.921875 216.800781 488.429688 C 218.886719 490.273438 220.464844 492.382812 221.558594 494.773438 C 222.648438 497.160156 223.195312 499.734375 223.195312 502.480469 C 223.195312 505.226562 222.648438 507.789062 221.558594 510.171875 C 220.464844 512.550781 218.886719 514.667969 216.800781 516.503906 C 215.074219 518.011719 213.144531 519.144531 211.019531 519.894531 C 208.894531 520.65625 206.589844 521.039062 204.105469 521.039062 C 201.632812 521.039062 199.335938 520.65625 197.210938 519.894531 C 195.085938 519.144531 193.15625 518.011719 191.429688 516.503906 C 189.34375 514.667969 187.765625 512.550781 186.671875 510.171875 C 185.582031 507.789062 185.035156 505.226562 185.035156 502.480469 Z M 194.867188 502.480469 C 194.867188 505.339844 195.746094 507.707031 197.507812 509.574219 C 199.269531 511.453125 201.484375 512.386719 204.148438 512.386719 C 206.8125 512.386719 209.027344 511.453125 210.789062 509.589844 C 212.550781 507.722656 213.425781 505.359375 213.425781 502.480469 C 213.425781 499.585938 212.542969 497.203125 210.773438 495.316406 C 209.003906 493.441406 206.792969 492.496094 204.148438 492.496094 C 201.5 492.496094 199.292969 493.441406 197.523438 495.332031 C 195.753906 497.21875 194.867188 499.601562 194.867188 502.480469 Z M 150.09375 520.335938 L 150.09375 513.1875 L 153.683594 513.1875 L 153.683594 491.746094 L 150.09375 491.746094 L 150.09375 484.597656 L 172.144531 484.597656 C 174.921875 484.597656 177.179688 485.460938 178.914062 487.179688 C 180.652344 488.898438 181.519531 491.132812 181.519531 493.878906 C 181.519531 495.863281 181.042969 497.492188 180.082031 498.757812 C 179.113281 500.023438 177.609375 501.050781 175.558594 501.828125 C 177.304688 502.355469 178.484375 502.984375 179.097656 503.710938 C 179.710938 504.441406 180.015625 505.53125 180.015625 506.988281 L 180.015625 513.1875 L 183.242188 513.1875 L 183.242188 520.335938 L 170.738281 520.335938 L 170.738281 512 C 170.738281 509.011719 170.398438 507.121094 169.710938 506.332031 C 169.023438 505.539062 167.742188 505.144531 165.875 505.144531 L 163.011719 505.144531 L 163.011719 513.1875 L 165.875 513.1875 L 165.875 520.335938 Z M 163.011719 491.746094 L 163.011719 499.304688 L 166.675781 499.304688 C 168.371094 499.304688 169.621094 498.996094 170.429688 498.386719 C 171.234375 497.765625 171.636719 496.816406 171.636719 495.523438 C 171.636719 494.234375 171.234375 493.28125 170.429688 492.664062 C 169.621094 492.050781 168.371094 491.746094 166.675781 491.746094 Z M 387.101562 566.292969 L 387.101562 559.144531 L 390.734375 559.144531 L 390.734375 537.703125 L 387.101562 537.703125 L 387.101562 530.554688 L 403.625 530.554688 L 403.625 537.703125 L 400.0625 537.703125 L 400.0625 559.144531 L 409.199219 559.144531 L 411.332031 552.191406 L 417.363281 552.191406 L 417.363281 566.292969 Z M 346.511719 548.4375 C 346.511719 545.65625 347.050781 543.085938 348.132812 540.703125 C 349.214844 538.332031 350.8125 536.230469 352.90625 534.386719 C 354.632812 532.878906 356.558594 531.753906 358.675781 531.003906 C 360.785156 530.25 363.09375 529.878906 365.582031 529.878906 C 368.0625 529.878906 370.371094 530.25 372.496094 531.003906 C 374.621094 531.753906 376.550781 532.878906 378.277344 534.386719 C 380.359375 536.230469 381.941406 538.339844 383.03125 540.730469 C 384.125 543.117188 384.671875 545.691406 384.671875 548.4375 C 384.671875 551.183594 384.125 553.746094 383.03125 556.128906 C 381.941406 558.507812 380.359375 560.625 378.277344 562.460938 C 376.550781 563.96875 374.621094 565.101562 372.496094 565.851562 C 370.371094 566.613281 368.0625 566.996094 365.582031 566.996094 C 363.109375 566.996094 360.8125 566.613281 358.683594 565.851562 C 356.558594 565.101562 354.632812 563.96875 352.90625 562.460938 C 350.820312 560.625 349.242188 558.507812 348.148438 556.128906 C 347.058594 553.746094 346.511719 551.183594 346.511719 548.4375 Z M 356.34375 548.4375 C 356.34375 551.296875 357.222656 553.664062 358.984375 555.53125 C 360.746094 557.410156 362.960938 558.34375 365.625 558.34375 C 368.285156 558.34375 370.503906 557.410156 372.265625 555.546875 C 374.027344 553.679688 374.902344 551.316406 374.902344 548.4375 C 374.902344 545.542969 374.019531 543.160156 372.25 541.273438 C 370.480469 539.398438 368.269531 538.453125 365.625 538.453125 C 362.976562 538.453125 360.769531 539.398438 359 541.289062 C 357.230469 543.175781 356.34375 545.558594 356.34375 548.4375 Z M 305.878906 548.4375 C 305.878906 545.65625 306.417969 543.085938 307.5 540.703125 C 308.585938 538.332031 310.179688 536.230469 312.273438 534.386719 C 314 532.878906 315.929688 531.753906 318.046875 531.003906 C 320.15625 530.25 322.460938 529.878906 324.949219 529.878906 C 327.433594 529.878906 329.738281 530.25 331.863281 531.003906 C 333.992188 531.753906 335.917969 532.878906 337.644531 534.386719 C 339.730469 536.230469 341.308594 538.339844 342.402344 540.730469 C 343.492188 543.117188 344.039062 545.691406 344.039062 548.4375 C 344.039062 551.183594 343.492188 553.746094 342.402344 556.128906 C 341.308594 558.507812 339.730469 560.625 337.644531 562.460938 C 335.917969 563.96875 333.992188 565.101562 331.863281 565.851562 C 329.738281 566.613281 327.433594 566.996094 324.949219 566.996094 C 322.476562 566.996094 320.179688 566.613281 318.054688 565.851562 C 315.929688 565.101562 314 563.96875 312.273438 562.460938 C 310.1875 560.625 308.609375 558.507812 307.519531 556.128906 C 306.425781 553.746094 305.878906 551.183594 305.878906 548.4375 Z M 315.714844 548.4375 C 315.714844 551.296875 316.589844 553.664062 318.351562 555.53125 C 320.113281 557.410156 322.328125 558.34375 324.992188 558.34375 C 327.65625 558.34375 329.871094 557.410156 331.632812 555.546875 C 333.394531 553.679688 334.273438 551.316406 334.273438 548.4375 C 334.273438 545.542969 333.386719 543.160156 331.617188 541.273438 C 329.847656 539.398438 327.640625 538.453125 324.992188 538.453125 C 322.347656 538.453125 320.136719 539.398438 318.367188 541.289062 C 316.597656 543.175781 315.714844 545.558594 315.714844 548.4375 Z M 267.144531 566.292969 L 267.144531 559.144531 L 270.773438 559.144531 L 270.773438 537.703125 L 267.144531 537.703125 L 267.144531 530.554688 L 283.808594 530.554688 L 283.808594 537.703125 L 280.050781 537.703125 L 280.050781 544.226562 L 290.570312 544.226562 L 290.570312 537.703125 L 286.792969 537.703125 L 286.792969 530.554688 L 303.464844 530.554688 L 303.464844 537.703125 L 299.851562 537.703125 L 299.851562 559.144531 L 303.464844 559.144531 L 303.464844 566.292969 L 286.792969 566.292969 L 286.792969 559.144531 L 290.570312 559.144531 L 290.570312 551.324219 L 280.050781 551.324219 L 280.050781 559.144531 L 283.808594 559.144531 L 283.808594 566.292969 Z M 255.582031 553.183594 L 265.511719 553.183594 C 264.222656 557.484375 261.914062 560.859375 258.609375 563.3125 C 255.300781 565.769531 251.394531 566.996094 246.90625 566.996094 C 244.433594 566.996094 242.132812 566.613281 240.007812 565.851562 C 237.882812 565.101562 235.964844 563.96875 234.234375 562.460938 C 232.152344 560.625 230.5625 558.507812 229.472656 556.128906 C 228.378906 553.746094 227.835938 551.183594 227.835938 548.4375 C 227.835938 545.675781 228.371094 543.109375 229.457031 540.730469 C 230.539062 538.355469 232.125 536.238281 234.226562 534.386719 C 235.957031 532.898438 237.882812 531.773438 240.007812 531.019531 C 242.132812 530.257812 244.433594 529.878906 246.898438 529.878906 C 248.875 529.878906 250.683594 530.210938 252.355469 530.863281 C 254.019531 531.515625 255.457031 532.476562 256.664062 533.757812 L 256.664062 530.554688 L 265 530.554688 L 265 544.316406 L 255.96875 544.316406 C 255.226562 542.414062 254.109375 540.960938 252.636719 539.960938 C 251.15625 538.960938 249.371094 538.453125 247.285156 538.453125 C 244.464844 538.453125 242.148438 539.378906 240.355469 541.242188 C 238.5625 543.09375 237.667969 545.492188 237.667969 548.4375 C 237.667969 551.296875 238.542969 553.664062 240.304688 555.53125 C 242.066406 557.410156 244.285156 558.34375 246.957031 558.34375 C 248.890625 558.34375 250.570312 557.921875 251.992188 557.070312 C 253.414062 556.226562 254.613281 554.929688 255.582031 553.183594 Z M 202.460938 562.5625 L 202.675781 566.292969 L 194.878906 566.292969 L 194.878906 554.175781 L 203.164062 554.175781 C 204.554688 556.101562 205.851562 557.46875 207.066406 558.269531 C 208.273438 559.078125 209.605469 559.484375 211.0625 559.484375 C 212.261719 559.484375 213.222656 559.195312 213.949219 558.625 C 214.675781 558.054688 215.039062 557.292969 215.039062 556.359375 C 215.039062 555.464844 214.683594 554.738281 213.964844 554.175781 C 213.246094 553.613281 212.171875 553.21875 210.75 552.984375 L 206.945312 552.355469 C 202.808594 551.679688 199.722656 550.414062 197.691406 548.550781 C 195.65625 546.699219 194.636719 544.226562 194.636719 541.140625 C 194.636719 537.910156 195.796875 535.222656 198.101562 533.0625 C 200.410156 530.902344 203.296875 529.828125 206.753906 529.828125 C 208.582031 529.828125 210.195312 530.152344 211.589844 530.796875 C 212.988281 531.441406 214.1875 532.425781 215.1875 533.757812 L 215.089844 530.554688 L 222.863281 530.554688 L 222.863281 541.820312 L 215.089844 541.820312 C 214.074219 540.074219 213.023438 538.785156 211.957031 537.957031 C 210.878906 537.121094 209.714844 536.710938 208.472656 536.710938 C 207.375 536.710938 206.464844 537.007812 205.746094 537.59375 C 205.023438 538.179688 204.667969 538.917969 204.667969 539.785156 C 204.667969 540.671875 205.050781 541.390625 205.8125 541.929688 C 206.570312 542.472656 207.835938 542.921875 209.613281 543.277344 L 212.90625 543.855469 C 217.023438 544.648438 220.078125 545.964844 222.070312 547.808594 C 224.054688 549.644531 225.046875 552.082031 225.046875 555.117188 C 225.046875 558.707031 223.929688 561.585938 221.707031 563.746094 C 219.472656 565.910156 216.488281 566.996094 212.734375 566.996094 C 210.617188 566.996094 208.714844 566.632812 207.019531 565.894531 C 205.316406 565.160156 203.800781 564.050781 202.460938 562.5625 "/>
<path fill-rule="evenodd" fill="rgb(18.03894%, 19.219971%, 57.249451%)" fill-opacity="1" d="M 447.730469 403.367188 L 344.78125 343.925781 L 344.78125 225.003906 L 331.859375 225.003906 L 331.859375 336.464844 L 306 321.535156 L 298.328125 325.964844 L 298.328125 340.886719 L 306 336.457031 L 441.273438 414.554688 Z M 274.949219 393.105469 L 267.257812 388.664062 L 267.257812 358.824219 L 170.726562 414.554688 L 164.269531 403.367188 L 267.257812 343.90625 L 267.257812 225.003906 L 280.179688 225.003906 L 280.179688 381.203125 L 287.871094 385.644531 Z M 408.988281 470.492188 L 306.019531 411.042969 L 203.046875 470.492188 L 196.585938 459.304688 L 331.859375 381.203125 L 331.859375 372.34375 L 344.78125 379.800781 L 344.78125 388.664062 L 318.941406 403.582031 L 415.449219 459.304688 Z M 408.988281 470.492188 "/>
<path fill-rule="evenodd" fill="rgb(92.939758%, 10.978699%, 14.118958%)" fill-opacity="1" d="M 331.859375 237.925781 L 316.941406 237.925781 L 316.941406 327.851562 L 313.710938 325.988281 L 313.710938 234.695312 L 331.859375 234.695312 Z M 181.917969 408.09375 L 189.375 421.015625 L 267.257812 376.050781 L 267.257812 379.78125 L 188.195312 425.425781 L 179.121094 409.710938 Z M 298.328125 358.113281 L 306 353.683594 L 422.625 421.015625 L 430.082031 408.09375 L 432.878906 409.710938 L 423.804688 425.425781 L 316.941406 363.730469 L 316.941406 372.589844 L 200.316406 439.921875 L 207.777344 452.84375 L 204.980469 454.457031 L 195.90625 438.742188 L 302.789062 377.03125 L 295.097656 372.589844 L 295.097656 237.925781 L 280.179688 237.925781 L 280.179688 234.695312 L 298.328125 234.695312 Z M 313.710938 361.863281 L 306 357.414062 L 298.328125 361.84375 L 298.328125 370.722656 L 306.019531 375.164062 L 313.710938 370.722656 Z M 333.859375 394.96875 L 411.722656 439.921875 L 404.261719 452.84375 L 407.058594 454.457031 L 416.132812 438.742188 L 337.089844 393.105469 Z M 333.859375 394.96875 "/>
</svg>
