<svg xmlns="http://www.w3.org/2000/svg" width="100%" height="100%" viewBox="159.269531 220.003906 293.46093800000006 255.488282"><path fill-rule="evenodd" fill="#0A3161" fill-opacity="1" d="M 447.730469 403.367188 L 344.78125 343.925781 L 344.78125 225.003906 L 331.859375 225.003906 L 331.859375 336.464844 L 306 321.535156 L 298.328125 325.964844 L 298.328125 340.886719 L 306 336.457031 L 441.273438 414.554688 Z M 274.949219 393.105469 L 267.257812 388.664062 L 267.257812 358.824219 L 170.726562 414.554688 L 164.269531 403.367188 L 267.257812 343.90625 L 267.257812 225.003906 L 280.179688 225.003906 L 280.179688 381.203125 L 287.871094 385.644531 Z M 408.988281 470.492188 L 306.019531 411.042969 L 203.046875 470.492188 L 196.585938 459.304688 L 331.859375 381.203125 L 331.859375 372.34375 L 344.78125 379.800781 L 344.78125 388.664062 L 318.941406 403.582031 L 415.449219 459.304688 Z M 408.988281 470.492188 " />
<path fill-rule="evenodd" fill="#BF0A30" fill-opacity="1" d="M 331.859375 237.925781 L 316.941406 237.925781 L 316.941406 327.851562 L 313.710938 325.988281 L 313.710938 234.695312 L 331.859375 234.695312 Z M 181.917969 408.09375 L 189.375 421.015625 L 267.257812 376.050781 L 267.257812 379.78125 L 188.195312 425.425781 L 179.121094 409.710938 Z M 298.328125 358.113281 L 306 353.683594 L 422.625 421.015625 L 430.082031 408.09375 L 432.878906 409.710938 L 423.804688 425.425781 L 316.941406 363.730469 L 316.941406 372.589844 L 200.316406 439.921875 L 207.777344 452.84375 L 204.980469 454.457031 L 195.90625 438.742188 L 302.789062 377.03125 L 295.097656 372.589844 L 295.097656 237.925781 L 280.179688 237.925781 L 280.179688 234.695312 L 298.328125 234.695312 Z M 313.710938 361.863281 L 306 357.414062 L 298.328125 361.84375 L 298.328125 370.722656 L 306.019531 375.164062 L 313.710938 370.722656 Z M 333.859375 394.96875 L 411.722656 439.921875 L 404.261719 452.84375 L 407.058594 454.457031 L 416.132812 438.742188 L 337.089844 393.105469 Z M 333.859375 394.96875 " />
</svg>